<svg xmlns="http://www.w3.org/2000/svg" id="Layer_1" data-name="Layer 1" viewBox="0 0 79.37 79.37"><defs><style>.cls-1{fill:#fdd10d}.cls-2{fill:#0479a1}.cls-3{fill:#17a8e0}.cls-4{fill:#353535}.cls-5{fill:#20bbb1}.cls-6{fill:#009b8f}</style></defs><title>icons-masterfilefinal</title><path d="M52.17,14.14h2.61A7.88,7.88,0,0,1,62.66,22V37.3a0,0,0,0,1,0,0h-18a0,0,0,0,1,0,0V21.66a7.52,7.52,0,0,1,7.52-7.52Z" class="cls-1" transform="translate(33.9 -30.4) rotate(45)"/><path d="M26.36,40.28,15.44,51.19a7.72,7.72,0,0,0,0,10.92l1.82,1.82a7.72,7.72,0,0,0,10.92,0L39.09,53Z" class="cls-2"/><path d="M50,38.46,28.18,16.62a7.72,7.72,0,0,0-10.92,0l-1.82,1.82a7.72,7.72,0,0,0,0,10.92L26.36,40.28l1.82-1.82A15.44,15.44,0,0,1,50,38.46Z" class="cls-3"/><path d="M50,38.46a15.44,15.44,0,0,0-21.83,0l-1.82,1.82h0L39.09,53,51.83,40.28Z" class="cls-4"/><path d="M62.75,51.19l-7.28-7.28L42.73,56.65,50,63.93a7.72,7.72,0,0,0,10.92,0l1.82-1.82A7.72,7.72,0,0,0,62.75,51.19Z" class="cls-5"/><rect width="18.01" height="5.15" x="38.28" y="45.89" class="cls-6" transform="translate(-20.42 47.63) rotate(-45)"/></svg>
